<?xml version="1.0"?>
<svg version="1.1" xmlns="http://www.w3.org/2000/svg" width="400px" height="120px" viewBox="0 44 396 76">
  <path fill="#ffffff" d="M13.09,100.25q-6.16,4.76-9.03,4.76q-1.54,0-2.275-1.505t-0.735-3.255q0-3.36,2.835-10.08t5.425-6.72q1.33,0,2.275,5.25t1.925,7.63q4.76-5.04,13.79-16.8q11.34-14.91,15.05-16.31q1.26-0.49,2.59-0.49t2.205,0.56t0.875,1.4q0,1.19-2.03,1.4q-2.45,1.33-7.56,6.44q-5.11,4.97-8.19,9.31q-7.49,10.43-15.4,17.01q3.92,5.81,12.32,5.81q0.91,0,2.73-0.14q19.46-1.82,27.58-16.87q3.29-6.02,3.29-11.9t-4.27-10.57q-3.43-3.85-7.455-4.76t-8.225-0.91q-10.78,0-19.88,4.97q-9.59,5.25-9.59,11.76q0,1.75,0.945,2.87t1.295,1.26l-0.42,0q-1.82-0.35-3.22-1.82q-1.54-1.82-1.54-3.85q0-7,8.785-12.04t20.615-5.04q5.46,0,11.2,1.26t10.43,6.02q5.39,5.6,5.39,12.67q0,5.25-3.08,10.85q-5.32,9.66-15.89,14.14q-8.47,3.57-18.27,3.57t-14.49-5.88z M3.57,99.97q0,2.17,0.84,3.78q3.01-1.33,7.28-5.53q-2.03-3.36-2.555-5.285t-0.735-5.075q-4.83,6.93-4.83,12.11z M13.58,80.37q0.07,0,0.14-0.07q0,0.14-0.035,0.14t-0.105-0.07z M85.8319,87.16q0,2.45-4.69,8.19q-5.53,6.79-9.45,6.79l-1.12,0q-1.82,0-2.87-1.89q-0.84-1.33-0.84-2.94q0-4.2,6.125-11.795t9.905-7.595q3.57,0,3.57,3.78q0,0.98-0.35,2.52q0.07,0.21,1.33,0.21t3.85-1.33q-0.07,1.19-5.53,3.43q0.07,0.28,0.07,0.63z M81.2819,83.52q-2.38,0-6.755,5.6t-4.375,8.26t1.68,2.66q3.01,0,7.63-5.46t4.62-7.84q-1.12-0.63-2.8-3.22z M123.7838,101.16q-4.76,0-4.76-4.41q0-2.52,2.24-6.895t4.69-7.385q-4.34,2.1-10.01,7.595t-7.91,11.515q-0.35,0.56-1.19,0.56q-1.68,0-1.68-1.89q0.7-3.85,3.15-8.82q0.77-1.61,4.55-9.38q-5.46,3.57-9.275,7.665t-7.07,8.225t-3.675,4.13q-0.91,0-1.575-0.84t-0.665-1.68q0-1.26,3.64-9.24l-4.2,4.41q-1.54,1.54-1.925,1.54t-0.385-0.455t0.56-1.015q2.59-2.59,4.62-5.18t6.72-9.24q0.77-1.05,2.17-1.05t1.4,1.33q0,0.49-3.71,6.825t-4.13,7.945q2.87-3.15,8.61-8.47q8.61-7.98,11.34-7.98q0.84,0,1.54,0.49t0.7,1.085t-2.73,5.285q-2.66,4.83-2.94,5.74q7.77-6.51,7.77-6.58q6.58-5.11,9.45-5.11q0.84,0,1.575,0.525t0.735,1.225q0,0.14-4.55,5.915t-5.11,9.485q-0.14,1.26,0.49,1.89t2.275,0.63t4.83-2.275t6.475-6.125q1.26-1.4,1.715-1.4t0.455,0.35q0,0.49-0.63,1.12q-3.43,4.13-7.385,7.035t-6.195,2.905z M212.7776,53.21q1.47,0,1.47,1.05q0,4.27-11.76,24.43q0.49,1.89,1.54,4.41l20.86-15.89q11.97-9.1,16.17-11.69q9.38-5.6,18.41-5.6q2.59,0,4.76,0.84q1.33,0.49,1.33,1.82t-0.7,1.33q-0.42,0-0.875-0.56t-2.66-0.56t-7.175,1.12q-7.84,1.75-17.78,7.84q-6.23,3.85-16.66,11.83t-15.05,10.99q3.57,7.49,9.17,13.93q8.61,10.01,15.47,10.01q3.36,0,3.36-2.59q0-0.49-0.105-0.98t0.245-1.19t0.84-0.7q0.91,0,1.19,2.17q0.07,0.35,0.07,0.7q0,2.24-2.275,3.675t-5.39,1.435t-5.215-0.98q-5.53-2.73-11.165-9.59t-8.645-14.42q-3.85,2.24-6.37,2.45q-4.69,6.09-11.55,11.83q-3.71,3.15-8.05,5.075t-8.33,1.925q-5.67,0-8.75-2.835t-3.08-8.645q0-2.87,1.12-5.32q3.57-7.91,10.78-10.92q3.99-1.75,7.945-1.75t5.285,2.59q0.49,0.91,0.49,1.925t-0.28,1.295t-0.77-0.49q-1.68-3.08-3.57-3.43q-1.26-0.14-1.82-0.14q-5.46,0-10.22,4.55q-6.16,5.95-6.16,12.88q0,7.56,8.54,8.54l0.56,0q3.08,0,7.91-2.73q7.84-4.48,16.73-15.4q-1.61-1.47-1.61-4.34t2.135-5.425t5.845-2.555q1.05,0,1.96,0.21q3.5-5.88,6.79-12.705t3.29-7.875q0-0.14-0.42-0.14t-4.865,2.205t-6.335,3.465t-4.62,3.955t-2.73,4.375q0,0.77,1.085,1.54t3.955,0.77q0.35,0.14,0.35,0.385t-1.925,0.56t-3.045,0.315q-2.52,0-2.52-2.1q0-2.45,3.01-5.88t6.58-5.39q10.43-5.6,13.23-5.6z M201.6476,84.57q-0.56-1.4-0.91-2.8q-1.4,2.03-2.8,3.99q0.7,0,1.26-0.105t2.45-1.085z M198.9876,78.55q-0.84-0.35-1.855-0.35t-2.03,1.26t-1.015,2.695t0.77,2.415q3.43-4.9,4.13-6.02z M242.7495,102.42q-0.35,0.07-1.505,0.07t-2.31-0.91t-1.155-2.345t0.525-3.185t0.735-2.66q-8.05,9.38-12.6,9.38q-2.87,0-3.15-3.57l0-0.49q0-3.01,3.64-8.12q-2.03,1.82-4.13,4.2q-0.28,0.28-0.7,0.28q-0.28,0-0.28-0.35t0.63-1.19l9.66-11.34q1.82-2.1,3.71-2.1t1.89,1.26q0,0.49-0.42,0.91q-2.8,2.59-7.035,8.61t-4.235,8.89q0,1.26,0.84,1.26q2.94,0,8.54-5.81q1.96-1.96,7.28-8.645t7-6.685q2.52,0,2.52,1.96q0,0.7-2.94,4.06q-3.99,4.83-6.09,7.875t-2.1,4.935t1.05,1.89q0.49,0,1.12-0.28q4.83-2.1,11.55-9.8q0.42-0.49,0.84-0.49t0.42,0.455t-0.49,1.015q-3.01,3.5-7.07,7.035t-5.74,3.885z M261.0314,100.6q2.31,0,5.95-2.45t7.07-6.65q0.84-1.12,1.33-1.12t0.49,0.42t-2.87,3.64q-7,7.7-11.69,7.7q-2.31,0-3.92-1.085t-1.61-3.36t1.19-5.285q2.03-4.76,6.51-11.97q8.19-13.3,11.62-13.3q0.7,0,1.435,0.525t0.805,1.155q-1.61,2.17-6.195,8.33t-6.335,8.855t-2.625,4.025t-1.295,2.065t-0.98,1.925q-1.19,2.38-1.19,4.48t2.31,2.1z M294.3633,79.46l10.08-0.14q0.21,0.14,0.21,0.21q0,0.63-8.715,1.75t-9.415,1.33q-1.33,1.19-4.9,7.105t-3.57,8.645q0,2.59,3.57,2.59q1.68,0,4.41-1.05t4.2-1.96q3.92-2.45,8.4-7.21q0.98-0.98,1.33-0.98q0.21,0,0.21,0.42t-1.05,1.68q-3.64,4.48-8.19,7.21q-5.46,3.36-10.43,3.36q-2.17,0-3.535-0.945t-1.365-3.815t2.52-7.875t3.85-7.455q-0.98,0.21-1.68,0.21q-2.03,0-2.03-1.61q0-1.19,1.68-1.68q0.21,0,0.63-0.07l4.06,0q1.26-1.61,2.87-3.71q1.96-2.52,2.66-2.52t1.75,0.56t1.05,1.33t-3.36,4.55q1.82,0.07,4.76,0.07z M319.5752,102.42q-0.35,0.07-1.505,0.07t-2.31-0.91t-1.155-2.345t0.525-3.185t0.735-2.66q-8.05,9.38-12.6,9.38q-2.87,0-3.15-3.57l0-0.49q0-3.01,3.64-8.12q-2.03,1.82-4.13,4.2q-0.28,0.28-0.7,0.28q-0.28,0-0.28-0.35t0.63-1.19l9.66-11.34q1.82-2.1,3.71-2.1t1.89,1.26q0,0.49-0.42,0.91q-2.8,2.59-7.035,8.61t-4.235,8.89q0,1.26,0.84,1.26q2.94,0,8.54-5.81q1.96-1.96,7.28-8.645t7-6.685q2.52,0,2.52,1.96q0,0.7-2.94,4.06q-3.99,4.83-6.09,7.875t-2.1,4.935t1.05,1.89q0.49,0,1.12-0.28q4.83-2.1,11.55-9.8q0.42-0.49,0.84-0.49t0.42,0.455t-0.49,1.015q-3.01,3.5-7.07,7.035t-5.74,3.885z M347.0971,102.35q-5.25,0-5.25-5.81q0-2.94,1.54-6.44t3.36-5.88q-0.35,0.07-0.91,0.07q-1.68,0-2.8-2.38l-5.18,6.72q-4.34,5.39-5.04,5.39q-0.35,0-0.35-0.28q0-0.7,1.19-2.03q6.09-7.07,8.61-11.97q1.61-6.09,4.06-6.09q1.61,0,1.61,1.4t-1.75,3.57l-1.68,2.24q0,1.47,2.17,1.47q1.26,0,2.8-0.91l1.82-1.12q0.14-0.07,0.7-0.07t1.19,0.7t0.42,1.26l-4.83,6.09q-4.48,5.74-4.48,9.065t3.08,3.325q3.22,0,7.91-3.43q2.8-2.03,5.11-4.55q2.17-2.52,2.38-2.52q0.49,0,0.49,0.525t-0.63,1.225l-2.24,2.52q-1.89,1.96-4.2,3.78q-5.53,4.13-9.1,4.13z M359.569,110.12q3.36,4.2,5.81,4.2q3.99,0,8.61-6.37q3.36-4.69,6.58-11.83l2.66-6.44l-10.29,8.05q-4.76,3.71-7.63,3.71q-1.54,0-2.45-1.05t-0.91-2.38q0-3.01,5.18-9.905t7.56-6.895t2.38,1.61q0,0.63-6.195,7.245t-6.195,8.925q0,0.91,1.19,0.91q2.24,0,8.995-5.25t10.185-8.68q0.77-0.91,2.17-2.73q1.33-1.54,2.94-1.54t1.61,1.54q0,0.28-3.15,4.97t-3.29,4.97q-2.17,4.2-6.65,12.25q-6.79,10.92-13.58,10.92q-2.24,0-3.92-1.925t-1.61-4.305z" />
  <path fill="#" d="" />
</svg>